<?xml version="1.0" standalone="no"?><!DOCTYPE svg PUBLIC "-//W3C//DTD SVG 1.1//EN" "http://www.w3.org/Graphics/SVG/1.1/DTD/svg11.dtd"><svg t="1680790838597" class="icon" viewBox="0 0 1024 1024" version="1.1" xmlns="http://www.w3.org/2000/svg" p-id="1577" width="24" height="24" xmlns:xlink="http://www.w3.org/1999/xlink"><path d="M512 85.333333C299.946667 85.333333 128 257.28 128 469.333333L128 938.666667 256 810.666667 384 938.666667 512 810.666667 640 938.666667 768 810.666667 896 938.666667 896 469.333333C896 257.28 724.053333 85.333333 512 85.333333M384 341.333333C430.933333 341.333333 469.333333 379.733333 469.333333 426.666667 469.333333 473.6 430.933333 512 384 512 337.066667 512 298.666667 473.6 298.666667 426.666667 298.666667 379.733333 337.066667 341.333333 384 341.333333M640 341.333333C686.933333 341.333333 725.333333 379.733333 725.333333 426.666667 725.333333 473.6 686.933333 512 640 512 593.066667 512 554.666667 473.6 554.666667 426.666667 554.666667 379.733333 593.066667 341.333333 640 341.333333Z" p-id="1578"></path></svg>