<?xml version="1.0" standalone="no"?><!DOCTYPE svg PUBLIC "-//W3C//DTD SVG 1.1//EN" "http://www.w3.org/Graphics/SVG/1.1/DTD/svg11.dtd"><svg t="1680166421244" class="icon" viewBox="0 0 1024 1024" version="1.1" xmlns="http://www.w3.org/2000/svg" p-id="902" width="128" height="128" xmlns:xlink="http://www.w3.org/1999/xlink"><path d="M512 0C238.933333 0 17.066667 221.866667 17.066667 494.933333v477.866667c0 27.306667 23.893333 51.2 51.2 51.2h68.266666c27.306667 0 51.2-23.893333 51.2-51.2v-34.133333c0-10.24 6.826667-17.066667 17.066667-17.066667h68.266667c10.24 0 17.066667 6.826667 17.066666 17.066667v34.133333c0 27.306667 23.893333 51.2 51.2 51.2h68.266667c27.306667 0 51.2-23.893333 51.2-51.2v-34.133333c0-10.24 6.826667-17.066667 17.066667-17.066667h68.266666c10.24 0 17.066667 6.826667 17.066667 17.066667v34.133333c0 27.306667 23.893333 51.2 51.2 51.2h68.266667c27.306667 0 51.2-23.893333 51.2-51.2v-34.133333c0-10.24 6.826667-17.066667 17.066666-17.066667h68.266667c10.24 0 17.066667 6.826667 17.066667 17.066667v34.133333c0 27.306667 23.893333 51.2 51.2 51.2h68.266666c27.306667 0 51.2-23.893333 51.2-51.2v-477.866667C1006.933333 221.866667 785.066667 0 512 0z m-119.466667 395.946667c0 6.826667-6.826667 13.653333-13.653333 17.066666-30.72 6.826667-54.613333 34.133333-54.613333 68.266667 0 30.72 23.893333 58.026667 54.613333 64.853333 10.24 3.413333 13.653333 10.24 13.653333 20.48-10.24 47.786667-51.2 81.92-102.4 81.92-58.026667 0-102.4-44.373333-102.4-102.4v-204.8c0-58.026667 44.373333-102.4 102.4-102.4s102.4 44.373333 102.4 102.4v54.613334z m409.6 0c0 6.826667-6.826667 13.653333-13.653333 17.066666-30.72 6.826667-54.613333 34.133333-54.613333 68.266667 0 30.72 23.893333 58.026667 54.613333 64.853333 10.24 3.413333 13.653333 10.24 13.653333 20.48-10.24 47.786667-51.2 81.92-102.4 81.92-58.026667 0-102.4-44.373333-102.4-102.4v-204.8c0-58.026667 44.373333-102.4 102.4-102.4s102.4 44.373333 102.4 102.4v54.613334z" fill="" p-id="903"></path></svg>